<svg width="14" height="14" viewBox="0 0 14 14" fill="none" xmlns="http://www.w3.org/2000/svg">
    <g clip-path="url(#clip0_11_39)">
        <path
            d="M7 0.21875C3.25391 0.21875 0.21875 3.25391 0.21875 7C0.21875 10.7461 3.25391 13.7812 7 13.7812C10.7461 13.7812 13.7812 10.7461 13.7812 7C13.7812 3.25391 10.7461 0.21875 7 0.21875ZM12.4688 7C12.4688 7.61523 12.3621 8.20859 12.1734 8.76094H11.6184C11.5008 8.76094 11.3887 8.71445 11.3066 8.62969L10.4316 7.73828C10.3086 7.6125 10.3086 7.40742 10.4344 7.28164L10.7762 6.93984V6.70195C10.7762 6.61992 10.7434 6.54063 10.6859 6.4832L10.4289 6.22617C10.3715 6.16875 10.2922 6.13594 10.2102 6.13594H9.77266C9.60312 6.13594 9.46367 5.99648 9.46367 5.82695C9.46367 5.74492 9.49648 5.66563 9.55391 5.6082L9.81094 5.35117C9.86836 5.29375 9.94766 5.26094 10.0297 5.26094H10.9047C11.0742 5.26094 11.2137 5.12148 11.2137 4.95195V4.69492C11.2137 4.52539 11.0742 4.38594 10.9047 4.38594H9.90117C9.66055 4.38594 9.46367 4.58281 9.46367 4.82344V4.94648C9.46367 5.13516 9.34336 5.30195 9.16563 5.36211L8.30156 5.64922C8.21133 5.6793 8.15117 5.76133 8.15117 5.85703V5.91719C8.15117 6.0375 8.05273 6.13594 7.93242 6.13594H7.49492C7.37461 6.13594 7.27617 6.0375 7.27617 5.91719C7.27617 5.79688 7.17773 5.69844 7.05742 5.69844H6.97266C6.89062 5.69844 6.81406 5.74492 6.77578 5.81875L6.51875 6.33008C6.44492 6.47773 6.29453 6.5707 6.12773 6.5707H5.52344C5.28281 6.5707 5.08594 6.37383 5.08594 6.1332V5.44141C5.08594 5.32656 5.13242 5.21445 5.21445 5.13242L5.76406 4.58281C5.88984 4.45703 5.96094 4.28477 5.96094 4.1043C5.96094 4.01133 6.02109 3.92656 6.11133 3.89648L7.20508 3.53281C7.25156 3.51641 7.29258 3.4918 7.32539 3.45898L8.0582 2.72617C8.11563 2.66875 8.14844 2.58945 8.14844 2.50742C8.14844 2.33789 8.00898 2.19844 7.83945 2.19844H7.27344L6.83594 2.63594V2.85469C6.83594 2.975 6.7375 3.07344 6.61719 3.07344H6.17969C6.05937 3.07344 5.96094 2.975 5.96094 2.85469V2.30781C5.96094 2.23945 5.99375 2.17383 6.04844 2.13281L6.83867 1.53945C6.89062 1.53672 6.94258 1.53125 6.99453 1.53125C10.016 1.53125 12.4688 3.98398 12.4688 7ZM3.77617 4.07695C3.77617 3.99492 3.80898 3.91563 3.86641 3.8582L4.56094 3.16367C4.61836 3.10625 4.69766 3.07344 4.77969 3.07344C4.94922 3.07344 5.08867 3.21289 5.08867 3.38242V3.81992C5.08867 3.90195 5.05586 3.98125 4.99844 4.03867L4.74141 4.2957C4.68398 4.35313 4.60469 4.38594 4.52266 4.38594H4.08516C3.91562 4.38594 3.77617 4.24648 3.77617 4.07695ZM7.27617 12.4551V12.2609C7.27617 12.0203 7.0793 11.8234 6.83867 11.8234H6.28633C5.99102 11.8234 5.55625 11.6785 5.31836 11.5008L4.71133 11.0441C4.39687 10.809 4.21367 10.4398 4.21367 10.0488V9.39531C4.21367 8.95781 4.44336 8.55313 4.81797 8.32891L5.99102 7.62617C6.18516 7.51133 6.40664 7.44844 6.63086 7.44844H7.48398C7.78203 7.44844 8.06914 7.55508 8.29336 7.74648L9.47461 8.76094H9.975C10.2074 8.76094 10.4289 8.85391 10.593 9.01797L11.066 9.49102C11.159 9.58398 11.2875 9.63594 11.4187 9.63594H11.7852C10.8992 11.2465 9.22031 12.3566 7.27617 12.4551Z"
            fill="#006666" />
    </g>
    <defs>
        <clipPath id="clip0_11_39">
            <rect width="14" height="14" fill="white" />
        </clipPath>
    </defs>
</svg>
