<?xml version="1.0" encoding="UTF-8" standalone="no"?>


<svg
    xmlns="http://www.w3.org/2000/svg"

    width="512" height="512" viewBox="0 0 512 512">


    <path style="fill:#f4eef3"
        d="m 452,504.62244 c 0,-0.20765 0.7875,-0.99515 1.75,-1.75 1.58606,-1.24387 1.62143,-1.2085 0.37756,0.37756 C 452.82119,504.91575 452,505.44548 452,504.62244 Z M 83.201244,470.75 l 0.201244,-8.25 0.340763,7.74683 0.340763,7.74683 153.707996,0.25637 L 391.5,478.5064 237.25,478.7532 83,479 Z M 435.49062,447.75 415.5,427.5 435.75,447.49062 C 454.56513,466.06475 456.45142,468 455.74062,468 c -0.14265,0 -9.25515,-9.1125 -20.25,-20.25 z M 51,265.25441 V 84.508824 L 92.495501,43.004412 133.991,1.5 258.4955,1.7577354 383,2.0154708 V 17.483556 32.951642 l 16.75,0.300055 16.75,0.300054 -16.75,0.224125 L 383,34 v 180.71241 180.71241 l -4.75,-4.60487 c -6.61564,-6.4135 -10.46804,-8.15671 -18.68634,-8.45556 l -6.93635,-0.25223 -7.99875,-7.99876 -7.99876,-7.99875 4.09712,-5.84085 c 2.25342,-3.21247 6.11295,-9.87577 8.57675,-14.80733 23.37934,-46.79642 13.52054,-102.8086 -24.45671,-138.94936 -34.23586,-32.5803 -82.81056,-41.97402 -126.60863,-24.48448 -37.48306,14.96782 -65.78975,49.78158 -72.70094,89.41328 -1.96909,11.29161 -1.96909,30.81657 0,42.10818 7.9171,45.4 42.89536,82.91965 88.07555,94.47479 32.13278,8.21819 67.40126,2.07605 95.55651,-16.64153 l 7.02953,-4.67322 8.02768,8.02768 8.02767,8.02768 0.22272,6.36525 c 0.31715,9.06398 3.00373,13.63388 15.3528,26.11526 L 358.46589,446 H 204.73295 51 Z M 340.83219,141.40498 c 1.78812,-1.25244 2.21177,-2.37508 1.97251,-5.227 -0.51656,-6.15734 -0.43587,-6.14678 -47.10015,-6.16324 L 253.90909,130 l -2.45454,2.45455 C 250.10455,133.80455 249,135.625 249,136.5 c 0,0.875 1.10455,2.69545 2.45455,4.04545 L 253.90909,143 h 42.32295 c 37.12249,0 42.60276,-0.19599 44.60015,-1.59502 z m -0.0547,-32.96168 c 2.71018,-1.89828 3.04425,-7.51629 0.56914,-9.570855 C 340.00121,97.755627 331.60324,97.5 296.25853,97.5 H 252.8238 l -1.9119,2.360784 c -2.52555,3.118516 -2.41174,4.730286 0.54265,7.684666 L 253.90909,110 h 42.32295 c 36.6871,0 42.6189,-0.2073 44.54545,-1.5567 z M 135,43.5 C 135,20.675 134.88547,2 134.74548,2 134.6055,2 115.82003,20.675 93,43.5 L 51.509036,85 H 93.254518 135 Z m 206.01422,31.689572 c 2.47833,-2.006832 2.96706,-6.302276 0.98834,-8.686493 C 340.91131,65.188207 330.58079,65 259.5,65 c -71.08079,0 -81.41131,0.188207 -82.50256,1.503079 -1.97872,2.384217 -1.48999,6.679661 0.98834,8.686493 C 180.10151,76.902784 184.47864,77 259.5,77 c 75.02136,0 79.39849,-0.09722 81.51422,-1.810428 z m 0.45579,-33.156436 c 2.30019,-2.54168 2.28164,-7.010349 -0.0361,-8.70515 C 338.84215,31.432872 180.19989,31.357269 177.7921,33.25 c -2.72683,2.143529 -3.00596,5.208407 -0.73704,8.092872 L 179.14516,44 h 80.27243 c 78.55166,0 80.31059,-0.04216 82.05242,-1.966864 z M 256.42965,314.99066 C 248.69095,307.2958 242.62198,301 242.94304,301 c 0.32107,0 6.8717,6.3 14.55696,14 7.68526,7.7 13.75423,13.9958 13.4866,13.99066 -0.26763,-0.005 -6.81826,-6.30514 -14.55695,-14 z M 205.15789,324 c 0,-1.375 0.22698,-1.9375 0.50439,-1.25 0.27741,0.6875 0.27741,1.8125 0,2.5 -0.27741,0.6875 -0.50439,0.125 -0.50439,-1.25 z M 219.5,307 c 7.68526,-7.7 14.19821,-14 14.47321,-14 0.275,0 -5.78795,6.3 -13.47321,14 -7.68526,7.7 -14.19821,14 -14.47321,14 -0.275,0 5.78795,-6.3 13.47321,-14 z M 219.4866,277.75 205.5,263.5 219.75,277.4866 C 232.9876,290.47952 234.45289,292 233.7366,292 c -0.14487,0 -6.55737,-6.4125 -14.25,-14.25 z M 256.5,270 c 7.68526,-7.7 14.19821,-14 14.47321,-14 0.275,0 -5.78795,6.3 -13.47321,14 -7.68526,7.7 -14.19821,14 -14.47321,14 -0.275,0 5.78795,-6.3 13.47321,-14 z m -51.34211,-9 c 0,-1.375 0.22698,-1.9375 0.50439,-1.25 0.27741,0.6875 0.27741,1.8125 0,2.5 -0.27741,0.6875 -0.50439,0.125 -0.50439,-1.25 z"

    />
    <path style="fill:#c2b7c2"
        d="m 239.25,411.27153 c 2.0625,-0.21574 5.4375,-0.21574 7.5,0 2.0625,0.21575 0.375,0.39226 -3.75,0.39226 -4.125,0 -5.8125,-0.17651 -3.75,-0.39226 z m 18.5625,-0.95464 c 0.72187,-0.28887 1.58438,-0.25335 1.91667,0.0789 0.33229,0.33229 -0.25834,0.56864 -1.3125,0.52522 -1.16495,-0.048 -1.4019,-0.28494 -0.60417,-0.60416 z M 323.97792,394.25 315.5,385.5 l 8.75,8.47792 c 8.12674,7.87404 9.20553,9.02208 8.47792,9.02208 -0.14964,0 -4.08714,-3.9375 -8.75,-8.75 z M 158,376.5 c -2.42903,-2.475 -4.19142,-4.5 -3.91642,-4.5 0.275,0 2.48739,2.025 4.91642,4.5 2.42903,2.475 4.19142,4.5 3.91642,4.5 -0.275,0 -2.48739,-2.025 -4.91642,-4.5 z m 69.98611,-60.75 c 7.41735,-7.5625 13.60485,-13.75 13.75,-13.75 0.71695,0 -0.71325,1.48617 -13.48611,14.01389 L 214.5,329.5 Z m 37,-9.5 L 251.5,292.5 265.25,305.98611 C 278.02286,318.51383 279.45306,320 278.73611,320 c -0.14515,0 -6.33265,-6.1875 -13.75,-13.75 z m 96.20884,-5.75 c 0.0204,-1.65 0.2445,-2.20394 0.49804,-1.23097 0.25354,0.97297 0.23687,2.32297 -0.0371,3 -0.27393,0.67703 -0.48137,-0.11903 -0.46099,-1.76903 z M 264.98611,278.75 C 277.51383,265.97714 279,264.54694 279,265.26389 c 0,0.14515 -6.1875,6.33265 -13.75,13.75 L 251.5,292.5 Z m 96.20884,5.75 c 0.0204,-1.65 0.2445,-2.20394 0.49804,-1.23097 0.25354,0.97297 0.23687,2.32297 -0.0371,3 -0.27393,0.67703 -0.48137,-0.11903 -0.46099,-1.76903 z M 228.98611,270.25 215.5,256.5 229.25,269.98611 C 242.02286,282.51383 243.45306,284 242.73611,284 c -0.14515,0 -6.33265,-6.1875 -13.75,-13.75 z m 103.88633,-55 c -1.24387,-1.58606 -1.2085,-1.62143 0.37756,-0.37756 1.66575,1.30637 2.19548,2.12756 1.37244,2.12756 -0.20765,0 -0.99515,-0.7875 -1.75,-1.75 z m -174.91423,-6.5 C 162.10217,204.33481 163,203.54091 163,204.29179 c 0,0.16049 -2.1375,2.29799 -4.75,4.75 L 153.5,213.5 Z m 99.85429,-34.43311 c 0.72187,-0.28887 1.58438,-0.25335 1.91667,0.0789 0.33229,0.33229 -0.25834,0.56864 -1.3125,0.52522 -1.16495,-0.048 -1.4019,-0.28494 -0.60417,-0.60416 z M 239.25,173.27153 c 2.0625,-0.21574 5.4375,-0.21574 7.5,0 2.0625,0.21575 0.375,0.39226 -3.75,0.39226 -4.125,0 -5.8125,-0.17651 -3.75,-0.39226 z m 12.20455,-32.72608 C 250.10455,139.19545 249,137.375 249,136.5 c 0,-0.875 1.10455,-2.69545 2.45455,-4.04545 L 253.90909,130 l 41.79546,0.0147 c 46.66428,0.0165 46.58359,0.006 47.10015,6.16324 0.58015,6.91533 1.21716,6.82202 -46.57266,6.82202 h -42.32295 l -2.45454,-2.45455 z m 0,-33 c -2.95439,-2.95438 -3.0682,-4.56615 -0.54265,-7.684666 L 252.8238,97.5 h 43.43473 C 344.03567,97.5 343,97.365599 343,103.56574 343,110.06223 343.45229,110 296.23204,110 H 253.90909 Z M 177.98578,75.189572 C 175.50745,73.18274 175.01872,68.887296 176.99744,66.503079 178.08869,65.188207 188.41921,65 259.5,65 c 71.08079,0 81.41131,0.188207 82.50256,1.503079 1.97872,2.384217 1.48999,6.679661 -0.98834,8.686493 C 338.89849,76.902784 334.52136,77 259.5,77 184.47864,77 180.10151,76.90278 177.98578,75.189572 Z m -0.93072,-33.8467 c -2.26892,-2.884465 -1.98979,-5.949343 0.73704,-8.092872 2.40779,-1.892731 161.05005,-1.817128 163.64177,0.07799 2.31778,1.694801 2.33633,6.16347 0.0361,8.70515 C 339.72818,43.957837 337.96925,44 259.41759,44 h -80.27243 z"

    />
    <path style="fill:#fdbe3f"
        d="m 221.43205,374.61721 c -25.46263,-6.75214 -47.49155,-25.85868 -57.02431,-49.45942 -4.80603,-11.89855 -5.88041,-17.86525 -5.88041,-32.65779 0,-14.79254 1.07438,-20.75924 5.88041,-32.65779 3.66774,-9.0804 8.43883,-16.39677 15.99693,-24.53095 12.30275,-13.24048 26.36308,-21.49608 43.26067,-25.40076 7.96031,-1.83946 11.40069,-2.09404 22.61174,-1.6732 11.13443,0.41796 14.67083,0.97032 22.39012,3.49716 22.26353,7.28777 39.8968,22.39258 49.92257,42.76411 6.65264,13.51759 8.67325,22.37081 8.67325,38.00143 0,15.63062 -2.02061,24.48384 -8.67325,38.00143 -10.0216,20.36304 -27.62646,35.4479 -49.92257,42.77653 -8.12579,2.67091 -10.81442,3.05471 -23.6672,3.37854 -12.8499,0.32376 -15.53193,0.0917 -23.56795,-2.03929 z m 7.25639,-58.83838 14.34342,-14.22116 14.24658,14.22116 c 14.87459,14.84806 16.97526,16.11152 20.89282,12.56618 1.00581,-0.91024 1.82874,-3.01287 1.82874,-4.6725 0,-2.54025 -2.2088,-5.24531 -13.9648,-17.10237 l -13.96479,-14.08485 13.96479,-14.063 c 14.79871,-14.90277 16.17694,-17.32042 12.30981,-21.59355 -3.63271,-4.01411 -6.06109,-2.58628 -21.05242,12.3783 l -14.23244,14.20705 -14.41949,-14.20705 C 213.26501,254.05793 211.14048,252.85952 207,257 c -3.80377,3.80377 -2.696,5.66323 12.46585,20.92476 l 14.46585,14.56095 -14.46585,14.58218 C 204.31059,322.34503 203.20369,324.20369 207,328 c 4.19576,4.19576 6.36089,2.97573 21.68844,-12.22117 z"

    />
    <path style="fill:#9ca1ab"
        d="m 430.8125,510.31689 c 0.72187,-0.28887 1.58438,-0.25335 1.91667,0.0789 0.33229,0.33229 -0.25834,0.56864 -1.3125,0.52522 -1.16495,-0.048 -1.4019,-0.28494 -0.60417,-0.60416 z M 403.5,491 390.52886,478 H 237.26443 84 V 470.5 463 H 230.25915 376.5183 L 397,483.5 c 11.26494,11.275 20.25433,20.5 19.97642,20.5 -0.2779,0 -6.34229,-5.85 -13.47642,-13 z M 83.349414,454 c 0,-4.675 0.172256,-6.5875 0.382791,-4.25 0.210535,2.3375 0.210535,6.1625 0,8.5 -0.210535,2.3375 -0.382791,0.425 -0.382791,-4.25 z M 348.48124,435.75 338.5,425.5 l 10.25,9.98124 C 358.27024,444.75186 359.45461,446 358.73124,446 c -0.14782,0 -4.76032,-4.6125 -10.25,-10.25 z M 407.72654,420.22788 400,412.45575 V 223.22788 34 h 8 8 v 197 c 0,108.35 -0.12306,197 -0.27346,197 -0.1504,0 -3.7504,-3.49746 -8,-7.77212 z m -75.64759,-11.81121 c 0.048,-1.16495 0.28494,-1.4019 0.60416,-0.60417 0.28887,0.72187 0.25335,1.58438 -0.0789,1.91667 -0.33229,0.33229 -0.56864,-0.25834 -0.52522,-1.3125 z M 383.48929,215 c 0,-99.825 0.11729,-140.6625 0.26064,-90.75 0.14336,49.9125 0.14336,131.5875 0,181.5 -0.14335,49.9125 -0.26064,9.075 -0.26064,-90.75 z M 343.97792,374.25 335.5,365.5 l 8.75,8.47792 c 4.8125,4.66286 8.75,8.60036 8.75,8.75 0,0.72761 -1.14804,-0.35118 -9.02208,-8.47792 z m 11.77208,8.08772 c 0.6875,-0.27741 1.8125,-0.27741 2.5,0 0.6875,0.27741 0.125,0.50439 -1.25,0.50439 -1.375,0 -1.9375,-0.22698 -1.25,-0.50439 z m 5.0625,-0.0208 c 0.72187,-0.28887 1.58438,-0.25335 1.91667,0.0789 0.33229,0.33229 -0.25834,0.56864 -1.3125,0.52522 -1.16495,-0.048 -1.4019,-0.28494 -0.60417,-0.60416 z M 331,371.62244 c 0,-0.20765 0.7875,-0.99515 1.75,-1.75 1.58606,-1.24387 1.62143,-1.2085 0.37756,0.37756 C 331.82119,371.91575 331,372.44548 331,371.62244 Z M 93,43.5 C 115.82003,20.675 134.6055,2 134.74548,2 134.88547,2 135,20.675 135,43.5 V 85 H 93.254518 51.509036 Z" />
    <path style="fill:#fd7045"
        d="M 222.23485,409.50255 C 165.3595,399.19278 124.03962,349.95891 124.03962,292.5 c 0,-32.57979 12.18925,-61.28517 35.88149,-84.5 22.2101,-21.76255 46.88954,-32.51277 77.44336,-33.73387 24.688,-0.98667 44.38246,3.68682 64.63553,15.33798 57.55449,33.10988 76.55499,106.93927 42.32921,164.47677 -14.38654,24.18545 -40.65709,44.47695 -67.797,52.36673 -15.67459,4.55673 -38.82653,5.85933 -54.29736,3.05494 z m 46.43235,-36.22459 c 22.29611,-7.32863 39.90097,-22.41349 49.92257,-42.77653 6.65264,-13.51759 8.67325,-22.37081 8.67325,-38.00143 0,-15.63062 -2.02061,-24.48384 -8.67325,-38.00143 -10.02577,-20.37153 -27.65904,-35.47634 -49.92257,-42.76411 -7.71929,-2.52684 -11.25569,-3.0792 -22.39012,-3.49716 -11.21105,-0.42084 -14.65143,-0.16626 -22.61174,1.6732 -26.29895,6.07714 -49.40968,25.55073 -59.2576,49.93171 -4.80603,11.89855 -5.88041,17.86525 -5.88041,32.65779 0,14.79254 1.07438,20.75924 5.88041,32.65779 3.66774,9.0804 8.43883,16.39677 15.99693,24.53095 11.7989,12.69822 24.88047,20.64666 41.02738,24.92847 8.03602,2.13098 10.71805,2.36305 23.56795,2.03929 12.85278,-0.32383 15.54141,-0.70763 23.6672,-3.37854 z" />
    <path style="fill:#0d4a5b"
        d="m 429.18424,509.95263 c -2.37366,-0.47894 -5.74866,-1.76814 -7.5,-2.8649 -1.75133,-1.09677 -12.63022,-11.46518 -24.17531,-23.04092 L 376.51786,463 230.00893,462.75502 83.5,462.51003 229.26021,462.00502 375.02043,461.5 356.40566,443 c -20.96481,-20.83554 -23.37941,-24.39401 -23.39589,-34.47911 l -0.01,-5.97911 -8.08431,-8.12653 -8.08431,-8.12652 9.78415,-9.67349 9.78415,-9.67348 8.05016,7.98825 8.05016,7.98826 6.32387,-0.0403 c 11.40474,-0.0728 12.2202,0.57784 56.82437,45.3356 27.11121,27.20456 40.8922,41.74773 42.43932,44.78648 3.52092,6.91556 3.27277,16.78708 -0.60005,23.87025 -5.59848,10.23929 -16.77969,15.40748 -28.30327,13.08238 z" />
    <path style="fill:#000000"
        d="m 84,454 v -8 h 137.77346 137.77346 l 7.95308,8 7.95308,8 H 229.72654 84 Z M 391.72654,404.22788 384,396.45575 V 215.22788 34 h 8 8 v 189 c 0,103.95 -0.12306,189 -0.27346,189 -0.1504,0 -3.7504,-3.49746 -8,-7.77212 z" />

</svg>
