<svg width="22" height="22" viewBox="0 0 22 22" fill="none" xmlns="http://www.w3.org/2000/svg">
<path d="M11 22C12.5177 22 13.7487 20.7689 13.7487 19.25H8.25129C8.25129 20.7689 9.48234 22 11 22ZM20.255 15.5671C19.4249 14.6751 17.8716 13.3332 17.8716 8.9375C17.8716 5.59883 15.5306 2.92617 12.3741 2.27047V1.375C12.3741 0.615742 11.7588 0 11 0C10.2412 0 9.62586 0.615742 9.62586 1.375V2.27047C6.46938 2.92617 4.12844 5.59883 4.12844 8.9375C4.12844 13.3332 2.57512 14.6751 1.74496 15.5671C1.48715 15.8443 1.37285 16.1756 1.375 16.5C1.37973 17.2047 1.93273 17.875 2.7543 17.875H19.2457C20.0673 17.875 20.6207 17.2047 20.625 16.5C20.6272 16.1756 20.5129 15.8439 20.255 15.5671Z" fill="white"/>
</svg>
