<svg width="18" height="18" viewBox="0 0 18 18" fill="none" xmlns="http://www.w3.org/2000/svg">
    <path
        d="M10.4911 15.4078C10.565 15.4067 10.6355 15.3766 10.6874 15.324C10.7393 15.2714 10.7684 15.2004 10.7684 15.1265C10.7684 15.0526 10.7393 14.9817 10.6874 14.929C10.6355 14.8764 10.565 14.8463 10.4911 14.8453H7.50888C7.43497 14.8463 7.36445 14.8764 7.31256 14.929C7.26067 14.9817 7.23158 15.0526 7.23158 15.1265C7.23158 15.2004 7.26068 15.2714 7.31257 15.324C7.36446 15.3766 7.43499 15.4067 7.50889 15.4078H10.4911Z"
        fill="#006666"
        stroke="#006666" stroke-width="0.3"/>
    <path
        d="M14.5632 4.95291H14.054V2.53125C14.0535 2.15842 13.9052 1.80099 13.6416 1.53736C13.378 1.27373 13.0206 1.12544 12.6477 1.125C12.2866 1.12582 11.4236 1.12441 11.0531 1.125C10.9793 1.12628 10.909 1.15647 10.8573 1.20908C10.8056 1.26169 10.7767 1.3325 10.7767 1.40626C10.7767 1.48001 10.8056 1.55082 10.8573 1.60343C10.909 1.65603 10.9793 1.68622 11.0531 1.6875H11.6694L11.5499 2.12723C11.5007 2.30578 11.3945 2.46335 11.2474 2.57591C11.1003 2.68847 10.9205 2.74986 10.7353 2.7507H7.26471C7.07968 2.74991 6.89998 2.68867 6.75297 2.57632C6.60596 2.46397 6.49969 2.30665 6.45035 2.12832L6.3306 1.6875H9.92806C10.0019 1.68635 10.0723 1.65622 10.1241 1.6036C10.176 1.55098 10.205 1.48009 10.205 1.40625C10.205 1.3324 10.176 1.26152 10.1241 1.2089C10.0723 1.15628 10.0019 1.12614 9.92806 1.125H5.35226C4.97944 1.12544 4.62201 1.27373 4.35838 1.53736C4.09475 1.80099 3.94645 2.15842 3.94601 2.53125V4.95291H3.4368C3.2131 4.95315 2.99863 5.04213 2.84045 5.20031C2.68227 5.35849 2.59329 5.57296 2.59305 5.79666V10.7073C2.59329 10.931 2.68227 11.1455 2.84045 11.3036C2.99863 11.4618 3.2131 11.5508 3.4368 11.551H3.94601V12.4173C3.94601 12.4919 3.97564 12.5634 4.02839 12.6162C4.08113 12.6689 4.15267 12.6986 4.22726 12.6986C4.30185 12.6986 4.37339 12.6689 4.42614 12.6162C4.47888 12.5634 4.50851 12.4919 4.50851 12.4173V11.551H7.59924C7.64136 11.5506 7.68293 11.5605 7.72027 11.58C7.7576 11.5995 7.78952 11.628 7.8132 11.6628L8.76654 13.0831C8.79257 13.1209 8.82742 13.1519 8.8681 13.1733C8.90877 13.1947 8.95404 13.2059 9 13.2059C9.04596 13.2059 9.09123 13.1947 9.1319 13.1733C9.17257 13.1519 9.20743 13.1209 9.23346 13.0831L10.186 11.6642C10.2096 11.629 10.2416 11.6003 10.2791 11.5805C10.3166 11.5608 10.3584 11.5506 10.4008 11.551H13.4915V15.4688C13.4912 15.6925 13.4023 15.9069 13.2441 16.0651C13.0859 16.2233 12.8714 16.3123 12.6477 16.3125H5.35226C5.12856 16.3123 4.91409 16.2233 4.75591 16.0651C4.59773 15.9069 4.50876 15.6925 4.50851 15.4688V13.5423C4.50747 13.4684 4.47738 13.3979 4.42474 13.346C4.37211 13.2941 4.30117 13.265 4.22726 13.265C4.15335 13.265 4.08241 13.2941 4.02978 13.346C3.97715 13.3979 3.94706 13.4684 3.94601 13.5423V15.4688C3.94645 15.8416 4.09475 16.199 4.35838 16.4626C4.62201 16.7263 4.97944 16.8746 5.35226 16.875H12.6477C13.0206 16.8746 13.378 16.7263 13.6416 16.4626C13.9052 16.199 14.0535 15.8416 14.054 15.4688V11.551H14.5632C14.7869 11.5508 15.0014 11.4618 15.1595 11.3036C15.3177 11.1454 15.4067 10.931 15.4069 10.7073V5.79665C15.4067 5.57295 15.3177 5.35848 15.1595 5.2003C15.0014 5.04213 14.7869 4.95315 14.5632 4.95291ZM14.8444 10.7073C14.8444 10.7819 14.8148 10.8534 14.762 10.9061C14.7093 10.9588 14.6378 10.9885 14.5632 10.9885H10.4008C10.2664 10.9884 10.1341 11.0212 10.0154 11.0841C9.89672 11.147 9.79524 11.238 9.71988 11.3492L9 12.4217L8.27929 11.3478C8.20388 11.2369 8.10247 11.1462 7.98392 11.0836C7.86538 11.021 7.7333 10.9883 7.59923 10.9885H3.4368C3.36222 10.9885 3.29071 10.9588 3.23798 10.9061C3.18525 10.8534 3.1556 10.7818 3.15555 10.7073V5.79664C3.15516 5.7596 3.16216 5.72285 3.17616 5.68855C3.19016 5.65425 3.21086 5.62309 3.23705 5.5969C3.26325 5.5707 3.29441 5.55 3.32871 5.53601C3.36301 5.52201 3.39976 5.515 3.4368 5.51539H11.4749C11.5495 5.51539 11.6211 5.48576 11.6738 5.43302C11.7266 5.38027 11.7562 5.30873 11.7562 5.23414C11.7562 5.15955 11.7266 5.08801 11.6738 5.03527C11.6211 4.98252 11.5495 4.95289 11.4749 4.95289H4.50851V2.53125C4.50876 2.30755 4.59773 2.09308 4.75591 1.9349C4.91409 1.77671 5.12856 1.68774 5.35226 1.6875H5.74756L5.9079 2.27719C5.99012 2.57422 6.1672 2.83622 6.41216 3.02326C6.65712 3.2103 6.95651 3.31212 7.26471 3.3132H10.7353C11.0437 3.31207 11.3432 3.2101 11.5882 3.02285C11.8333 2.8356 12.0103 2.57335 12.0924 2.27609L12.2524 1.6875H12.6477C12.8714 1.68774 13.0859 1.77671 13.2441 1.9349C13.4023 2.09308 13.4912 2.30755 13.4915 2.53125V4.95291H12.5999C12.5253 4.95291 12.4538 4.98254 12.4011 5.03529C12.3483 5.08803 12.3187 5.15957 12.3187 5.23416C12.3187 5.30875 12.3483 5.38029 12.4011 5.43303C12.4538 5.48578 12.5253 5.51541 12.5999 5.51541H14.5632C14.6002 5.51502 14.637 5.52203 14.6713 5.53602C14.7056 5.55002 14.7367 5.57072 14.7629 5.59691C14.7891 5.62311 14.8098 5.65427 14.8238 5.68857C14.8378 5.72287 14.8448 5.75962 14.8444 5.79666V10.7073Z"
        fill="#006666" stroke="#006666" stroke-width="0.3"/>
    <path
        d="M10.5867 8.24909V7.70883C10.5885 7.49904 10.5487 7.29097 10.4699 7.09657C10.391 6.90216 10.2745 6.72525 10.1271 6.57599C9.97963 6.42672 9.80417 6.30805 9.61075 6.22677C9.41734 6.1455 9.20977 6.10323 8.99998 6.10239C8.39533 6.07076 7.36935 6.63911 7.41333 7.70887L7.4133 8.24359C7.39122 8.49406 7.30003 8.73348 7.1499 8.93519C6.91469 9.26814 6.9404 9.71491 7.58247 9.90282C7.72845 9.94936 7.87832 9.98268 8.03027 10.0024C8.06175 10.237 8.17729 10.4522 8.35544 10.6081C8.53358 10.764 8.76223 10.85 8.99896 10.8501C9.23569 10.8502 9.46441 10.7644 9.64267 10.6086C9.82094 10.4529 9.93665 10.2378 9.96832 10.0032C10.1207 9.98317 10.2711 9.94959 10.4175 9.90282C11.0607 9.71546 11.084 9.26714 10.8507 8.93603C10.7014 8.73556 10.6101 8.49793 10.5867 8.24909ZM9.00082 10.2876C8.92267 10.2873 8.84614 10.2653 8.77979 10.224C8.71344 10.1827 8.65991 10.1238 8.62518 10.0537C8.73971 10.058 8.8607 10.0605 8.99561 10.0588C9.12139 10.0611 9.25458 10.0596 9.37305 10.0551C9.33869 10.1246 9.28568 10.1831 9.21994 10.2242C9.1542 10.2653 9.07833 10.2872 9.00082 10.2876ZM10.2686 9.36035C9.85528 9.47855 9.42461 9.52454 8.9956 9.49631C7.90664 9.47965 7.90323 9.4078 7.5792 9.30655C8.20723 8.35316 7.86147 8.16589 8.01398 7.3949C8.08642 7.15845 8.24169 6.95606 8.45131 6.82485C8.66092 6.69363 8.91082 6.64241 9.15515 6.68056C9.39948 6.71872 9.62186 6.8437 9.78149 7.03257C9.94112 7.22144 10.0273 7.46154 10.0242 7.70881V8.25238C10.0477 8.62053 10.1776 8.97394 10.398 9.26972C10.4474 9.31644 10.3671 9.32815 10.2686 9.36035Z"
        fill="#006666" stroke="#006666" stroke-width="0.3"/>
    <path
        d="M5.75601 6.42975C5.69394 6.39004 5.61877 6.37627 5.54665 6.3914C5.47453 6.40653 5.41123 6.44936 5.37036 6.51067C5.32949 6.57199 5.31431 6.64689 5.32808 6.71928C5.34185 6.79167 5.38348 6.85576 5.44402 6.89778C5.59821 6.98298 6.13601 7.40854 6.2512 7.37926C6.31101 7.37816 6.36894 7.35814 6.41666 7.32206C6.46437 7.28599 6.49943 7.23572 6.51679 7.17847C6.53415 7.12123 6.53293 7.05995 6.51329 7.00345C6.49365 6.94694 6.4566 6.89812 6.40748 6.86398L5.75601 6.42975Z"
        fill="#006666"  stroke="#006666" stroke-width="0.3"/>
    <path
        d="M6.09549 8.54874L5.44401 8.98325C5.39488 9.01738 5.35784 9.06621 5.33819 9.12271C5.31855 9.17922 5.31733 9.24049 5.33469 9.29774C5.35206 9.35498 5.38712 9.40525 5.43484 9.44132C5.48256 9.47739 5.54049 9.49741 5.6003 9.4985C5.71044 9.53069 6.26559 9.09415 6.40752 9.01676C6.46793 8.97469 6.50944 8.91061 6.52315 8.83828C6.53685 8.76595 6.52165 8.69113 6.48082 8.62987C6.43998 8.56862 6.37676 8.52581 6.30472 8.51065C6.23268 8.49548 6.15756 8.50915 6.09549 8.54874Z"
        fill="#006666" stroke="#006666" stroke-width="0.3"/>
    <path
        d="M6.05099 8.22162C6.1249 8.22057 6.19542 8.19048 6.24731 8.13785C6.2992 8.08522 6.32829 8.01428 6.32829 7.94037C6.32829 7.86646 6.2992 7.79552 6.24731 7.74289C6.19542 7.69026 6.1249 7.66016 6.05099 7.65912H5.3995C5.3256 7.66017 5.25508 7.69026 5.20319 7.74289C5.1513 7.79552 5.12221 7.86646 5.12221 7.94038C5.12221 8.01429 5.1513 8.08523 5.2032 8.13786C5.25509 8.19049 5.32561 8.22058 5.39952 8.22162H6.05099Z"
        fill="#006666" stroke="#006666" stroke-width="0.3"/>
    <path
        d="M11.7488 7.37923C11.8042 7.37918 11.8584 7.36274 11.9045 7.33198L12.556 6.89775C12.587 6.87739 12.6137 6.85109 12.6345 6.82037C12.6553 6.78965 12.6698 6.75512 12.6773 6.71877C12.6847 6.68241 12.6848 6.64495 12.6777 6.60854C12.6705 6.57213 12.6563 6.53749 12.6357 6.50662C12.6151 6.47575 12.5886 6.44925 12.5577 6.42866C12.5269 6.40807 12.4922 6.39379 12.4558 6.38665C12.4194 6.3795 12.382 6.37963 12.3456 6.38702C12.3093 6.39441 12.2747 6.40893 12.244 6.42973L11.5925 6.86396C11.5434 6.89809 11.5063 6.94692 11.4867 7.00343C11.467 7.05993 11.4658 7.12121 11.4832 7.17846C11.5005 7.23571 11.5356 7.28599 11.5833 7.32206C11.631 7.35813 11.689 7.37815 11.7488 7.37923Z"
        fill="#006666" stroke="#006666" stroke-width="0.3"/>
    <path
        d="M11.9045 8.54872C11.8424 8.50906 11.7673 8.49532 11.6952 8.51047C11.6231 8.52561 11.5598 8.56843 11.519 8.62972C11.4781 8.69102 11.4629 8.76589 11.4767 8.83826C11.4904 8.91063 11.532 8.97471 11.5925 9.01675C11.7483 9.10307 12.2844 9.5278 12.3997 9.4985C12.4595 9.49742 12.5175 9.4774 12.5652 9.44133C12.6129 9.40525 12.648 9.35498 12.6653 9.29773C12.6827 9.24048 12.6815 9.1792 12.6618 9.12269C12.6422 9.06618 12.6051 9.01736 12.556 8.98323L11.9045 8.54872Z"
        fill="#006666" stroke="#006666" stroke-width="0.3"/>
    <path
        d="M12.6005 7.65912H11.949C11.8751 7.66016 11.8046 7.69026 11.7527 7.74289C11.7008 7.79552 11.6717 7.86646 11.6717 7.94037C11.6717 8.01428 11.7008 8.08522 11.7527 8.13785C11.8046 8.19048 11.8751 8.22057 11.949 8.22162H12.6005C12.6744 8.22057 12.7449 8.19048 12.7968 8.13785C12.8487 8.08522 12.8778 8.01428 12.8778 7.94037C12.8778 7.86646 12.8487 7.79552 12.7968 7.74289C12.7449 7.69026 12.6744 7.66017 12.6005 7.65912Z"
        fill="#006666" stroke="#006666" stroke-width="0.3"/>
</svg>
